<mxfile host="app.diagrams.net" modified="2023-07-21T08:45:51.495Z" agent="Mozilla/5.0 (Windows NT 10.0; Win64; x64) AppleWebKit/537.36 (KHTML, like Gecko) Chrome/114.0.0.0 Safari/537.36" version="21.5.2" etag="vIdhCyHDOU93j7x8vX3g" type="github">
  <diagram name="第 1 页" id="7GD1xzQOGPTEm98LOJ3k">
    <mxGraphModel>
      <root>
        <mxCell id="0" />
        <mxCell id="1" parent="0" />
      </root>
    </mxGraphModel>
  </diagram>
</mxfile>
